<svg width="99" height="17" viewBox="0 0 99 17" fill="none" xmlns="http://www.w3.org/2000/svg">
<path d="M49.464 17H46.406V10.664H40.664V17H37.606V1.336H40.664V7.958H46.406V1.336H49.464V17ZM55.9445 17H52.8865V1.336H55.9445V17ZM69.7757 4.064H65.5737V17H62.5157V4.064H58.3357V1.336H69.7757V4.064ZM78.406 12.05H71.63V9.388H78.406V12.05ZM84.5832 17H81.5252V1.336H84.5832V17ZM98.4143 4.064H94.2123V17H91.1543V4.064H86.9743V1.336H98.4143V4.064Z" fill="black"/>
<circle cx="26.5" cy="8.5" r="8.5" fill="#F16344"/>
<circle cx="26.5" cy="8.5" r="8.5" fill="url(#paint0_linear)"/>
<circle cx="11.5" cy="12.5" r="4.5" fill="#F16344"/>
<circle cx="11.5" cy="12.5" r="4.5" fill="url(#paint1_linear)"/>
<circle cx="2.5" cy="14.5" r="2.5" fill="#F16344"/>
<circle cx="2.5" cy="14.5" r="2.5" fill="url(#paint2_linear)"/>
<defs>
<linearGradient id="paint0_linear" x1="18" y1="8" x2="35" y2="8" gradientUnits="userSpaceOnUse">
<stop stop-color="#C54124"/>
<stop offset="1" stop-color="#F16344" stop-opacity="0"/>
</linearGradient>
<linearGradient id="paint1_linear" x1="7" y1="12.2353" x2="16" y2="12.2353" gradientUnits="userSpaceOnUse">
<stop stop-color="#C54124"/>
<stop offset="1" stop-color="#F16344" stop-opacity="0"/>
</linearGradient>
<linearGradient id="paint2_linear" x1="0" y1="14.3529" x2="5" y2="14.3529" gradientUnits="userSpaceOnUse">
<stop stop-color="#C54124"/>
<stop offset="1" stop-color="#F16344" stop-opacity="0"/>
</linearGradient>
</defs>
</svg>
